<svg width="1920" height="702" viewBox="0 0 1920 702" fill="none" xmlns="http://www.w3.org/2000/svg">
<path d="M63.3632 431.539C64.9376 533.87 -1.57768 556.829 -35.0321 555.517L-37 -1.40198H2178.86V701.141C2155.25 686.972 2162.46 658.503 2169.02 646.039C2112.35 646.039 2115.23 594.874 2123.76 569.291C2073.38 569.291 2056.85 529.933 2054.88 510.254C1958.85 565.355 1893.52 496.478 1889.58 455.152C1848.65 444.132 1843.66 384.964 1846.29 356.757C1803.78 358.331 1780.03 315.431 1773.47 293.784C1724.67 311.102 1703.29 276.073 1698.69 256.394C1629.42 347.705 1570.12 291.816 1549.13 252.458C1486.16 294.965 1457.3 249.178 1450.74 220.971C1401.93 263.478 1355.62 232.123 1338.57 211.132C1239.38 269.382 1179.17 194.733 1161.46 150.127C1104.78 189.485 1081.43 145.535 1076.84 118.64C1007.56 175.316 944.329 139.631 921.37 114.704C872.566 177.677 813.136 146.191 789.521 122.576C779.681 246.554 626.185 228.843 598.634 177.677C598.634 315.431 451.041 327.238 409.715 258.362C404.992 315.037 359.205 301.656 336.902 287.88C330.605 330.387 289.672 331.83 269.993 327.238C252.676 396.509 197.181 374.468 171.598 354.789C179.47 463.418 102.721 451.218 63.3632 431.539Z" fill="url(#paint0_radial_327_2)"/>
<path d="M52.3632 294.49C53.765 385.606 -5.46004 406.048 -35.2478 404.88L-37 -90.9996H1936V534.543C1914.97 521.927 1921.4 496.578 1927.24 485.481C1876.78 485.481 1879.34 439.923 1886.94 417.144C1842.08 417.144 1827.36 382.1 1825.61 364.578C1740.1 413.64 1681.93 352.312 1678.42 315.515C1641.98 305.703 1637.54 253.02 1639.87 227.904C1602.03 229.306 1580.88 191.108 1575.04 171.833C1531.59 187.253 1512.55 156.063 1508.46 138.541C1446.78 219.844 1393.98 170.081 1375.29 135.037C1319.22 172.885 1293.52 132.116 1287.68 107.001C1244.22 144.849 1202.99 116.931 1187.8 98.2401C1099.49 150.106 1045.87 83.6383 1030.1 43.9213C979.638 78.9657 958.845 39.8328 954.757 15.8858C893.078 66.3497 836.774 34.5761 816.331 12.3813C772.876 68.4524 719.959 40.4169 698.932 19.3903C690.171 129.78 553.498 114.01 528.967 68.4524C528.967 191.108 397.551 201.621 360.754 140.293C356.549 190.757 315.78 178.842 295.922 166.577C290.315 204.425 253.869 205.71 236.346 201.621C220.927 263.299 171.514 243.674 148.735 226.152C155.744 322.875 87.4076 312.012 52.3632 294.49Z" fill="url(#paint1_radial_327_2)"/>
<defs>
<radialGradient id="paint0_radial_327_2" cx="0" cy="0" r="1" gradientUnits="userSpaceOnUse" gradientTransform="translate(1068.96 219.004) rotate(6.72457) scale(1117.59 354.333)">
<stop stop-color="#462A15"/>
<stop offset="1" stop-color="#2B1C14"/>
</radialGradient>
<radialGradient id="paint1_radial_327_2" cx="0" cy="0" r="1" gradientUnits="userSpaceOnUse" gradientTransform="translate(947.748 105.249) rotate(6.72457) scale(995.098 315.497)">
<stop stop-color="#31180E"/>
<stop offset="1" stop-color="#110C09"/>
</radialGradient>
</defs>
</svg>
