<svg width="1533" height="826" viewBox="0 0 1533 826" fill="none" xmlns="http://www.w3.org/2000/svg">
<path opacity="0.3" d="M85.8005 160.093C55.2937 191.871 15.889 181.808 0 172.804C10.169 209.668 61.4374 216.765 85.8005 215.706C98.6281 250.027 137.753 252.251 155.712 249.073C200.201 310.088 248.398 277.674 266.935 253.84C319.051 304.684 360.68 264.432 374.98 237.951C425.825 281.169 455.484 246.425 463.958 223.651C526.243 264.328 548.17 214.118 551.348 183.928C600.922 206.808 639.797 171.215 653.037 150.558C575.181 191.871 476.67 17.0936 425.825 126.725C405.487 115.285 386.632 127.255 379.747 134.67C325.089 86.3672 286.002 114.544 273.291 134.67C264.816 129.374 241.513 125.137 216.09 150.558C174.779 118.78 174.779 155.325 155.712 164.86C138.234 148.972 127.112 160.093 114.401 164.86C104.232 157.233 91.0969 158.504 85.8005 160.093Z" fill="#B77032"/>
<path opacity="0.3" d="M966.821 90.4794C928.929 112.945 893.649 92.7144 880.745 79.7907C880.689 118.031 928.194 138.576 951.954 144.068C955.139 180.57 992.246 193.172 1010.4 194.91C1036.96 265.598 1092.07 247.248 1116.3 229.237C1152.93 292.164 1203.8 264.505 1224.66 242.81C1262.1 298.048 1299.97 272.498 1314.22 252.818C1363.37 308.665 1397.92 266.144 1409.05 237.903C1450.71 273.203 1497.68 249.298 1515.96 232.932C1429.9 251.928 1381.69 57.1765 1303.39 149.225C1286.85 132.765 1265.48 139.259 1256.87 144.563C1217.11 83.4063 1171.91 100.108 1154.28 116.104C1147.53 108.735 1126.21 98.4222 1094.92 116.122C1063.61 74.4567 1053.84 109.671 1032.91 113.762C1020.32 93.7804 1006.63 101.523 993.106 102.718C985.346 92.6508 972.349 90.3642 966.821 90.4794Z" fill="#B77032"/>
<path opacity="0.3" d="M630.821 554.479C592.929 576.945 557.649 556.714 544.745 543.791C544.689 582.031 592.194 602.576 615.954 608.068C619.139 644.57 656.246 657.172 674.401 658.91C700.96 729.598 756.067 711.248 780.302 693.237C816.928 756.164 867.803 728.505 888.662 706.81C926.103 762.048 963.971 736.498 978.225 716.818C1027.37 772.665 1061.92 730.144 1073.05 701.903C1114.71 737.203 1161.68 713.298 1179.96 696.932C1093.9 715.928 1045.69 521.177 967.39 613.225C950.851 596.765 929.482 603.259 920.865 608.563C881.11 547.406 835.913 564.108 818.284 580.104C811.534 572.735 790.211 562.422 758.918 580.122C727.605 538.457 717.836 573.671 696.914 577.762C684.319 557.78 670.629 565.523 657.106 566.718C649.346 556.651 636.349 554.364 630.821 554.479Z" fill="#B77032"/>
<path opacity="0.3" d="M859.138 217.175C871.932 226.624 885.342 220.641 890.447 216.468C889.076 230.207 871.263 235.858 862.528 236.966C860.056 249.962 846.268 253.139 839.683 253.103C827.57 277.529 808.442 268.932 800.392 261.58C784.945 282.852 767.677 271.065 760.973 262.513C745.514 280.993 732.84 270.436 728.436 262.848C708.751 281.121 697.886 264.59 694.915 254.04C678.668 265.204 662.663 254.908 656.692 248.364C686.918 258.319 711.32 190.115 736.098 226.03C742.638 220.719 750.078 223.829 752.98 226.048C769.487 205.526 785.115 213.171 790.865 219.558C793.558 217.157 801.593 214.228 812.19 221.725C824.954 207.898 827.182 220.903 834.549 223.134C839.8 216.414 844.436 219.694 849.251 220.615C852.404 217.281 857.156 216.933 859.138 217.175Z" fill="#B77032"/>
</svg>
