<svg width="1920" height="731" viewBox="0 0 1920 731" fill="none" xmlns="http://www.w3.org/2000/svg">
<path d="M47.3632 269.602C48.9376 167.27 -17.5777 144.311 -51.0321 145.623L-53 702.543H2162.86V0C2139.25 14.1689 2146.46 42.638 2153.02 55.1014C2096.35 55.1014 2099.23 106.267 2107.76 131.85C2057.38 131.85 2040.85 171.208 2038.88 190.887C1942.85 135.786 1877.52 204.662 1873.58 245.988C1832.65 257.009 1827.66 316.177 1830.29 344.384C1787.78 342.809 1764.03 385.71 1757.47 407.357C1708.67 390.039 1687.29 425.068 1682.69 444.747C1613.42 353.436 1554.12 409.325 1533.13 448.683C1470.16 406.176 1441.3 451.963 1434.74 480.169C1385.93 437.662 1339.62 469.018 1322.57 490.009C1223.38 431.759 1163.17 506.408 1145.46 551.014C1088.78 511.656 1065.43 555.606 1060.84 582.5C991.565 525.825 928.329 561.509 905.37 586.436C856.566 523.463 797.136 554.95 773.521 578.565C763.681 454.586 610.185 472.298 582.634 523.463C582.634 385.71 435.041 373.902 393.715 442.779C388.992 386.103 343.205 399.485 320.902 413.26C314.605 370.754 273.672 369.31 253.993 373.902C236.676 304.632 181.181 326.672 155.598 346.352C163.47 237.723 86.7214 249.923 47.3632 269.602Z" fill="url(#paint0_radial_293_21)"/>
<path d="M36.3632 406.65C37.765 315.535 -21.46 295.092 -51.2478 296.26L-53 792.14H1920V166.598C1898.97 179.214 1905.4 204.562 1911.24 215.66C1860.78 215.66 1863.34 261.218 1870.94 283.996C1826.08 283.996 1811.36 319.041 1809.61 336.563C1724.1 287.501 1665.93 348.829 1662.42 385.625C1625.98 395.438 1621.54 448.121 1623.87 473.236C1586.03 471.834 1564.88 510.033 1559.04 529.307C1515.59 513.888 1496.55 545.077 1492.46 562.599C1430.78 481.296 1377.98 531.059 1359.29 566.104C1303.22 528.256 1277.52 569.024 1271.68 594.139C1228.22 556.291 1186.99 584.21 1171.8 602.9C1083.49 551.035 1029.87 617.502 1014.1 657.219C963.638 622.175 942.845 661.308 938.757 685.255C877.078 634.791 820.774 666.564 800.331 688.759C756.876 632.688 703.959 660.724 682.932 681.75C674.171 571.361 537.498 587.13 512.967 632.688C512.967 510.033 381.551 499.519 344.754 560.847C340.549 510.383 299.78 522.298 279.922 534.564C274.315 496.716 237.869 495.431 220.346 499.519C204.927 437.841 155.514 457.466 132.735 474.988C139.744 378.266 71.4076 389.129 36.3632 406.65Z" fill="url(#paint1_radial_293_21)"/>
<defs>
<radialGradient id="paint0_radial_293_21" cx="0" cy="0" r="1" gradientUnits="userSpaceOnUse" gradientTransform="translate(1052.96 482.137) rotate(-6.72457) scale(1117.59 354.333)">
<stop stop-color="#462A15"/>
<stop offset="1" stop-color="#2B1C14"/>
</radialGradient>
<radialGradient id="paint1_radial_293_21" cx="0" cy="0" r="1" gradientUnits="userSpaceOnUse" gradientTransform="translate(931.748 595.892) rotate(-6.72457) scale(995.098 315.497)">
<stop stop-color="#31180E"/>
<stop offset="1" stop-color="#110C09"/>
</radialGradient>
</defs>
</svg>
