<svg width="211" height="78" viewBox="0 0 211 78" fill="none" xmlns="http://www.w3.org/2000/svg">
<path d="M104.512 35.2322C102.587 35.2322 100.928 34.9225 99.5344 34.3031C98.1628 33.6616 96.9019 32.6993 95.7516 31.4163L99.1362 28.0649C99.8883 28.9276 100.718 29.6023 101.625 30.089C102.554 30.5535 103.627 30.7858 104.843 30.7858C105.95 30.7858 106.801 30.5867 107.398 30.1885C108.018 29.7904 108.328 29.2373 108.328 28.5294C108.328 27.8879 108.128 27.3681 107.73 26.9699C107.332 26.5717 106.801 26.2288 106.138 25.9412C105.496 25.6537 104.777 25.3772 103.981 25.1117C103.206 24.8462 102.432 24.5476 101.658 24.2158C100.884 23.8618 100.165 23.4305 99.5012 22.9217C98.8597 22.3908 98.3398 21.7382 97.9416 20.964C97.5434 20.1676 97.3443 19.1721 97.3443 17.9776C97.3443 16.5397 97.6872 15.3009 98.373 14.2612C99.0809 13.2215 100.054 12.4362 101.293 11.9053C102.532 11.3523 103.959 11.0757 105.573 11.0757C107.21 11.0757 108.704 11.3633 110.053 11.9385C111.425 12.5136 112.553 13.2989 113.438 14.2944L110.053 17.6458C109.345 16.9158 108.626 16.3738 107.896 16.0198C107.188 15.6659 106.381 15.4889 105.474 15.4889C104.567 15.4889 103.848 15.6659 103.317 16.0198C102.786 16.3517 102.521 16.8383 102.521 17.4799C102.521 18.0771 102.72 18.5638 103.118 18.9399C103.516 19.2938 104.036 19.6035 104.678 19.869C105.341 20.1344 106.06 20.3999 106.834 20.6653C107.631 20.9308 108.416 21.2405 109.19 21.5944C109.965 21.9484 110.672 22.4018 111.314 22.9549C111.978 23.4858 112.508 24.1715 112.907 25.0122C113.305 25.8306 113.504 26.8482 113.504 28.0649C113.504 30.2991 112.708 32.0578 111.115 33.3408C109.522 34.6017 107.321 35.2322 104.512 35.2322ZM122.997 35.199C121.514 35.199 120.187 34.834 119.015 34.104C117.864 33.374 116.946 32.3785 116.261 31.1176C115.597 29.8567 115.265 28.4188 115.265 26.804C115.265 25.1891 115.597 23.7512 116.261 22.4903C116.946 21.2294 117.864 20.234 119.015 19.5039C120.187 18.7739 121.514 18.4089 122.997 18.4089C124.081 18.4089 125.054 18.6191 125.917 19.0394C126.801 19.4597 127.52 20.0459 128.073 20.798C128.626 21.528 128.936 22.3687 129.003 23.3199V30.2881C128.936 31.2393 128.626 32.091 128.073 32.8431C127.543 33.5731 126.835 34.1482 125.95 34.5686C125.065 34.9889 124.081 35.199 122.997 35.199ZM124.025 30.6199C125.109 30.6199 125.983 30.266 126.647 29.5581C127.31 28.8281 127.642 27.91 127.642 26.804C127.642 26.0519 127.487 25.3882 127.178 24.8131C126.89 24.2379 126.47 23.7955 125.917 23.4858C125.386 23.154 124.766 22.9881 124.058 22.9881C123.351 22.9881 122.72 23.154 122.167 23.4858C121.636 23.7955 121.205 24.2379 120.873 24.8131C120.563 25.3882 120.408 26.0519 120.408 26.804C120.408 27.534 120.563 28.1866 120.873 28.7617C121.183 29.3369 121.614 29.7904 122.167 30.1222C122.72 30.454 123.339 30.6199 124.025 30.6199ZM127.443 34.8672V30.5204L128.206 26.6049L127.443 22.6894V18.7408H132.42V34.8672H127.443ZM146.646 34.8672V25.6758C146.646 24.8352 146.381 24.1605 145.85 23.6517C145.341 23.1208 144.688 22.8553 143.892 22.8553C143.339 22.8553 142.852 22.977 142.432 23.2203C142.012 23.4415 141.68 23.7734 141.437 24.2158C141.193 24.6361 141.072 25.1228 141.072 25.6758L139.114 24.7135C139.114 23.4526 139.39 22.3465 139.943 21.3953C140.497 20.4441 141.26 19.7141 142.233 19.2053C143.228 18.6744 144.346 18.4089 145.584 18.4089C146.779 18.4089 147.83 18.6965 148.737 19.2717C149.666 19.8247 150.396 20.5658 150.927 21.4949C151.458 22.424 151.723 23.4415 151.723 24.5476V34.8672H146.646ZM135.995 34.8672V18.7408H141.072V34.8672H135.995ZM161.819 42.1009C160.049 42.1009 158.49 41.7912 157.141 41.1718C155.813 40.5745 154.762 39.7228 153.988 38.6167L157.107 35.4976C157.683 36.1834 158.324 36.7033 159.032 37.0572C159.762 37.4111 160.636 37.5881 161.653 37.5881C162.914 37.5881 163.899 37.2784 164.606 36.659C165.336 36.0396 165.701 35.1658 165.701 34.0376V29.9231L166.564 26.4058L165.801 22.8885V18.7408H170.778V33.9049C170.778 35.564 170.391 37.0019 169.617 38.2186C168.843 39.4352 167.781 40.3865 166.431 41.0722C165.082 41.758 163.545 42.1009 161.819 42.1009ZM161.587 34.3695C160.105 34.3695 158.789 34.0155 157.638 33.3076C156.488 32.5998 155.581 31.6375 154.917 30.4208C154.254 29.2041 153.922 27.8547 153.922 26.3726C153.922 24.8684 154.254 23.519 154.917 22.3244C155.581 21.1077 156.488 20.1565 157.638 19.4708C158.789 18.7629 160.105 18.4089 161.587 18.4089C162.693 18.4089 163.677 18.6191 164.54 19.0394C165.425 19.4376 166.133 20.0127 166.664 20.7649C167.217 21.4949 167.526 22.3465 167.593 23.3199V29.4585C167.526 30.4097 167.217 31.2614 166.664 32.0135C166.133 32.7435 165.425 33.3187 164.54 33.739C163.655 34.1593 162.671 34.3695 161.587 34.3695ZM162.549 29.8567C163.257 29.8567 163.865 29.7019 164.374 29.3922C164.905 29.0825 165.303 28.6732 165.569 28.1644C165.856 27.6335 166 27.0362 166 26.3726C166 25.709 165.856 25.1117 165.569 24.5808C165.303 24.0499 164.905 23.6296 164.374 23.3199C163.865 23.0102 163.257 22.8553 162.549 22.8553C161.863 22.8553 161.255 23.0102 160.724 23.3199C160.193 23.6296 159.784 24.0499 159.496 24.5808C159.209 25.1117 159.065 25.709 159.065 26.3726C159.065 26.992 159.209 27.5782 159.496 28.1313C159.784 28.6622 160.182 29.0825 160.691 29.3922C161.222 29.7019 161.841 29.8567 162.549 29.8567ZM101.459 56.3394V52.2912H106.503C107.144 52.2912 107.73 52.1585 108.261 51.893C108.792 51.6276 109.212 51.2405 109.522 50.7317C109.832 50.2229 109.987 49.6035 109.987 48.8735C109.987 48.1656 109.832 47.5573 109.522 47.0485C109.212 46.5397 108.792 46.1526 108.261 45.8871C107.73 45.6217 107.144 45.4889 106.503 45.4889H101.459V41.4407H107.266C108.748 41.4407 110.086 41.7394 111.281 42.3367C112.475 42.9339 113.415 43.7967 114.101 44.9248C114.809 46.0309 115.163 47.3471 115.163 48.8735C115.163 50.3999 114.809 51.7271 114.101 52.8553C113.415 53.9614 112.475 54.8241 111.281 55.4435C110.086 56.0408 108.748 56.3394 107.266 56.3394H101.459ZM97.4771 64.8672V41.4407H102.687V64.8672H97.4771ZM123.904 65.199C122.422 65.199 121.094 64.834 119.922 64.104C118.772 63.374 117.854 62.3785 117.168 61.1176C116.504 59.8567 116.173 58.4188 116.173 56.804C116.173 55.1891 116.504 53.7512 117.168 52.4903C117.854 51.2294 118.772 50.234 119.922 49.5039C121.094 48.7739 122.422 48.4089 123.904 48.4089C124.988 48.4089 125.961 48.6191 126.824 49.0394C127.709 49.4597 128.428 50.0459 128.981 50.798C129.534 51.528 129.843 52.3687 129.91 53.3199V60.2881C129.843 61.2393 129.534 62.091 128.981 62.8431C128.45 63.5731 127.742 64.1482 126.857 64.5686C125.972 64.9889 124.988 65.199 123.904 65.199ZM124.933 60.6199C126.016 60.6199 126.89 60.266 127.554 59.5581C128.218 58.8281 128.549 57.91 128.549 56.804C128.549 56.0519 128.395 55.3882 128.085 54.8131C127.797 54.2379 127.377 53.7955 126.824 53.4858C126.293 53.154 125.674 52.9881 124.966 52.9881C124.258 52.9881 123.627 53.154 123.074 53.4858C122.543 53.7955 122.112 54.2379 121.78 54.8131C121.471 55.3882 121.316 56.0519 121.316 56.804C121.316 57.534 121.471 58.1866 121.78 58.7617C122.09 59.3369 122.521 59.7904 123.074 60.1222C123.627 60.454 124.247 60.6199 124.933 60.6199ZM128.35 64.8672V60.5204L129.113 56.6049L128.35 52.6894V48.7408H133.328V64.8672H128.35ZM143.771 65.199C142.244 65.199 140.884 64.834 139.689 64.104C138.517 63.374 137.588 62.3785 136.902 61.1176C136.239 59.8567 135.907 58.4188 135.907 56.804C135.907 55.1891 136.239 53.7512 136.902 52.4903C137.588 51.2294 138.517 50.234 139.689 49.5039C140.884 48.7739 142.244 48.4089 143.771 48.4089C144.877 48.4089 145.872 48.6191 146.757 49.0394C147.664 49.4597 148.405 50.0459 148.98 50.798C149.578 51.528 149.909 52.3687 149.976 53.3199V60.1222C149.909 61.0734 149.589 61.9361 149.014 62.7104C148.438 63.4625 147.697 64.0708 146.79 64.5354C145.883 64.9778 144.877 65.199 143.771 65.199ZM144.667 60.6199C145.397 60.6199 146.027 60.4651 146.558 60.1554C147.089 59.8235 147.509 59.37 147.819 58.7949C148.129 58.2197 148.284 57.5561 148.284 56.804C148.284 56.0519 148.129 55.3993 147.819 54.8462C147.531 54.2711 147.111 53.8176 146.558 53.4858C146.027 53.154 145.408 52.9881 144.7 52.9881C143.992 52.9881 143.362 53.154 142.809 53.4858C142.278 53.8176 141.846 54.2711 141.514 54.8462C141.205 55.4214 141.05 56.074 141.05 56.804C141.05 57.534 141.205 58.1866 141.514 58.7617C141.824 59.3369 142.255 59.7904 142.809 60.1222C143.362 60.454 143.981 60.6199 144.667 60.6199ZM153.062 64.8672H148.084V60.5204L148.848 56.6049L147.985 52.6894V40.7771H153.062V64.8672ZM163.804 65.2322C162.321 65.2322 161.005 64.9336 159.855 64.3363C158.727 63.7169 157.842 62.8763 157.2 61.8144C156.559 60.7305 156.238 59.4917 156.238 58.0981V48.7408H161.315V58.0317C161.315 58.5847 161.403 59.0603 161.58 59.4585C161.78 59.8567 162.067 60.1664 162.443 60.3876C162.819 60.6088 163.273 60.7194 163.804 60.7194C164.556 60.7194 165.153 60.4872 165.595 60.0226C166.038 59.536 166.259 58.8723 166.259 58.0317V48.7408H171.336V58.0649C171.336 59.4807 171.015 60.7305 170.374 61.8144C169.732 62.8763 168.847 63.7169 167.719 64.3363C166.591 64.9336 165.286 65.2322 163.804 65.2322ZM184.843 64.8672L179.202 56.5053L184.81 48.7408H190.484L183.715 57.4676L183.881 55.3772L190.816 64.8672H184.843ZM174.523 64.8672V40.7771H179.6V64.8672H174.523ZM198.66 65.199C197.178 65.199 195.851 64.834 194.679 64.104C193.528 63.374 192.61 62.3785 191.925 61.1176C191.261 59.8567 190.929 58.4188 190.929 56.804C190.929 55.1891 191.261 53.7512 191.925 52.4903C192.61 51.2294 193.528 50.234 194.679 49.5039C195.851 48.7739 197.178 48.4089 198.66 48.4089C199.744 48.4089 200.718 48.6191 201.58 49.0394C202.465 49.4597 203.184 50.0459 203.737 50.798C204.29 51.528 204.6 52.3687 204.666 53.3199V60.2881C204.6 61.2393 204.29 62.091 203.737 62.8431C203.206 63.5731 202.499 64.1482 201.614 64.5686C200.729 64.9889 199.744 65.199 198.66 65.199ZM199.689 60.6199C200.773 60.6199 201.647 60.266 202.31 59.5581C202.974 58.8281 203.306 57.91 203.306 56.804C203.306 56.0519 203.151 55.3882 202.841 54.8131C202.554 54.2379 202.134 53.7955 201.58 53.4858C201.05 53.154 200.43 52.9881 199.722 52.9881C199.014 52.9881 198.384 53.154 197.831 53.4858C197.3 53.7955 196.869 54.2379 196.537 54.8131C196.227 55.3882 196.072 56.0519 196.072 56.804C196.072 57.534 196.227 58.1866 196.537 58.7617C196.847 59.3369 197.278 59.7904 197.831 60.1222C198.384 60.454 199.003 60.6199 199.689 60.6199ZM203.107 64.8672V60.5204L203.87 56.6049L203.107 52.6894V48.7408H208.084V64.8672H203.107Z" fill="#FDDCA4"/>
<path fill-rule="evenodd" clip-rule="evenodd" d="M0.571483 12.2189C4.82176 2.21655 28.374 -2.47123 56.3283 1.29594C61.7677 2.02897 64.9926 4.8351 63.5313 7.56362C62.07 10.2921 56.4759 11.9098 51.0365 11.1768C27.6923 8.03089 21.1006 12.9845 20.5196 14.3518C20.1557 15.2083 20.5185 16.4312 23.3677 17.6746C26.3624 18.9814 32.5122 20.4036 43.3465 20.4036C66.3645 20.4036 83.2697 25.5312 87.0127 33.7438C90.7769 42.0031 79.4494 49.6454 61.3787 52.2161C56.723 52.8784 52.2637 54.2945 49.4918 55.9515C46.803 57.5589 46.339 58.9258 46.9962 60.0601L53.1393 70.661C54.7115 73.374 51.6016 76.2126 46.1931 77.0012C40.7847 77.7898 35.1259 76.2298 33.5537 73.5169L27.4106 62.9159C24.3377 57.613 28.1417 52.7977 33.8677 49.3749C39.5105 46.0017 47.6128 43.5397 55.814 42.373C66.2918 40.8825 67.8646 37.6371 67.1294 36.024C66.3729 34.3642 61.379 30.6348 43.3465 30.6348C29.2049 30.6348 17.7465 28.7825 9.98071 25.3936C2.06952 21.9413 -1.48022 17.0473 0.571483 12.2189Z" fill="#FDDCA4"/>
</svg>
